<svg width="120" height="120" viewBox="0 0 120 120" fill="none" xmlns="http://www.w3.org/2000/svg">
<circle cx="60" cy="60" r="60" fill="#1E1E1E"/>
<path d="M45 82L48.5 90.5L57 87" stroke="#BEBEBE" stroke-width="2" stroke-linecap="round" stroke-linejoin="round"/>
<path d="M62.7071 15.2929C62.3166 14.9024 61.6834 14.9024 61.2929 15.2929L54.9289 21.6569C54.5384 22.0474 54.5384 22.6805 54.9289 23.0711C55.3195 23.4616 55.9526 23.4616 56.3431 23.0711L62 17.4142L67.6569 23.0711C68.0474 23.4616 68.6805 23.4616 69.0711 23.0711C69.4616 22.6805 69.4616 22.0474 69.0711 21.6569L62.7071 15.2929ZM62 62H63V16H62H61V62H62Z" fill="#BEBEBE"/>
<path d="M63 61H106.5" stroke="#BEBEBE" stroke-width="2" stroke-linecap="round"/>
<path d="M17.1829 59.8625C16.7829 60.0625 16.3579 60.2375 15.9079 60.3875C15.4829 60.5375 15.0204 60.675 14.5204 60.8C15.4704 61.025 16.3579 61.35 17.1829 61.775L37.9204 72.3125C38.2954 72.4875 38.5579 72.6875 38.7079 72.9125C38.8579 73.1125 38.9329 73.35 38.9329 73.625V76.0625L10.8079 61.5875V60.05L38.9329 45.6125V48.05C38.9329 48.325 38.8579 48.5625 38.7079 48.7625C38.5579 48.9625 38.2954 49.1625 37.9204 49.3625L17.1829 59.8625ZM52.0685 87.6875C51.8685 88.1875 51.5685 88.55 51.1685 88.775C50.7685 89.025 50.356 89.15 49.931 89.15H48.4685L71.7935 32.825C72.1685 31.9 72.8435 31.4375 73.8185 31.4375H75.356L52.0685 87.6875ZM109.186 60.05V61.5875L81.0612 76.0625V73.625C81.0612 73.35 81.1362 73.1125 81.2862 72.9125C81.4362 72.6875 81.6862 72.4875 82.0362 72.3125L102.811 61.775C103.211 61.575 103.624 61.4 104.049 61.25C104.499 61.1 104.974 60.9625 105.474 60.8375C104.524 60.6125 103.636 60.2875 102.811 59.8625L82.0362 49.3625C81.3862 49.0125 81.0612 48.575 81.0612 48.05V45.6125L109.186 60.05Z" fill="#8F3056"/>
</svg>
