<svg width="120" height="120" viewBox="0 0 120 120" fill="none" xmlns="http://www.w3.org/2000/svg">
  <circle cx="60" cy="60" r="60" fill="#BEBEBE"/>
  <path d="m45 82 3.5 8.5L57 87" stroke="#FFF" stroke-width="3" stroke-linecap="round" stroke-linejoin="round"/>
  <path d="M62.707 15.293a1 1 0 0 0-1.414 0l-6.364 6.364a1 1 0 0 0 1.414 1.414L62 17.414l5.657 5.657a1 1 0 0 0 1.414-1.414zM62 62h1V16h-2v46z" fill="#FFF"/>
  <path d="M63 61h43.5" stroke="#FFF" stroke-width="3" stroke-linecap="round"/>
  <path d="M17.183 59.863q-.6.3-1.275.525-.638.225-1.388.412 1.425.337 2.663.975L37.92 72.313q.563.261.788.6.225.3.225.712v2.438L10.808 61.587V60.05l28.125-14.437v2.437q0 .413-.225.713t-.788.6zm34.885 27.825q-.3.75-.9 1.087-.6.375-1.237.375h-1.462l23.324-56.325q.563-1.388 2.025-1.388h1.538zm57.118-27.638v1.538L81.061 76.062v-2.437q0-.413.225-.713.225-.338.75-.6l20.775-10.537q.6-.3 1.238-.525.675-.225 1.425-.413-1.425-.337-2.663-.975l-20.775-10.5q-.975-.525-.975-1.312v-2.437z" fill="#1E1E1E"/>
</svg>
