<svg width="125" height="125" viewBox="0 0 125 125" fill="none" xmlns="http://www.w3.org/2000/svg"><rect width="125" height="125" fill="#1E1E1E"/><path d="M65.06 19.94a1.5 1.5 0 0 0-2.12 0l-9.547 9.545a1.5 1.5 0 1 0 2.122 2.122L64 23.12l8.485 8.486a1.5 1.5 0 1 0 2.122-2.122zM64 67h1.5V21h-3v46z" fill="#fff"/><path d="M65 66h43.5" stroke="#fff" stroke-width="3" stroke-linecap="round"/><path d="M23.155 64.6q-.75.375-1.613.675-.825.3-1.8.487.975.226 1.8.525.863.263 1.613.675l16.838 8.513q.75.375 1.05.863.3.487.3 1.087v4.8L12.355 67.15v-2.775l28.988-15.038V54.1q0 .637-.3 1.125-.3.45-1.05.825zm33.11 27.188q-.487 1.312-1.537 1.95-1.012.636-2.1.637h-2.812l22.537-56.137q.45-1.2 1.35-1.838.937-.637 2.138-.637h2.85zm56.374-27.413v2.775L83.652 82.225v-4.8q0-.6.3-1.087.3-.488 1.05-.863l16.837-8.512a9 9 0 0 1 1.575-.675 19 19 0 0 1 1.8-.525q-1.912-.413-3.375-1.163l-16.837-8.55q-.75-.375-1.05-.825-.3-.488-.3-1.125v-4.763z" fill="#8F3056"/><path d="m47 87 3.5 8.5L59 92" stroke="#fff" stroke-width="3" stroke-linecap="round" stroke-linejoin="round"/></svg>